#!OML:ASF H:\Terrain\Patient Classification 1\Animal1\Tuesday\Animal1.ASF
:FULLY-SPECIFIED
:DEGREES
4165
root 12.5503 16.2286 -13.1388 -0.852567 -3.53303 0.497895
lowerback 0.45376 0.0991501 1.18228
upperback 6.28301 0.0265236 1.22796
thorax 6.26131 0.0365391 0.616322
lowerneck -10.2324 1.94788 -4.01027
upperneck -9.2899 3.13317 3.4824
head -1.33478 1.67267 1.83844
rclavicle -8.74653e-015 3.97569e-016
rhumerus 47.7755 18.2904 12.592
rradius 78.1074
rwrist -66.176
rhand 3.03559 24.9389
rfingers 7.12502
rthumb 28.4946 -2.91067
lclavicle -8.74653e-015 3.97569e-016
lhumerus 44.4142 -33.69 -0.869113
lradius 63.6457
lwrist 11.5335
lhand 39.0562 40.5835
lfingers 7.12502
lthumb 61.6083 52.5567
rfemur -10.21 6.71129 16.6666
rtibia 30.1038
rfoot -11.1017 -24.9847
rtoes -4.07265
lfemur -9.45625 -10.9798 -12.0616
ltibia 23.2397
lfoot -16.6887 4.78691
ltoes -24.7404
4166
root 12.5562 16.236 -13.1286 -0.763596 -3.54804 0.392451
lowerback 0.162681 0.112526 1.3857
upperback 6.22514 0.0242276 1.38362
thorax 6.3682 0.0417618 0.665139
lowerneck -10.1804 1.91488 -4.03102
upperneck -9.37101 3.09477 3.56268
head -1.36987 1.65316 1.86712
rclavicle 1.68967e-015 3.18055e-015
rhumerus 47.6302 18.5704 12.8315
rradius 78.1985
rwrist -66.1979
rhand 2.71831 25.112
rfingers 7.12502
rthumb 28.1914 -2.7879
lclavicle 1.68967e-015 3.18055e-015
lhumerus 43.6158 -32.0561 0.0570637
lradius 63.3639
lwrist 11.3171
lhand 39.1416 40.5148
lfingers 7.12502
lthumb 61.6799 52.4017
rfemur -10.2708 6.91377 16.7726
rtibia 30.1042
rfoot -11.171 -25.1041
rtoes -3.0687
lfemur -9.32621 -10.943 -11.9667
ltibia 22.8817
lfoot -16.6154 4.82263
ltoes -25.4033
4167
root 12.5591 16.2347 -13.1207 -0.614425 -3.664 0.227201
lowerback -0.0128422 0.169749 1.62068
upperback 6.04589 0.0838395 1.54028
thorax 6.2794 0.0785412 0.699271
lowerneck -10.2519 1.89739 -3.72077
upperneck -9.25189 3.03083 3.32903
head -1.30672 1.61264 1.7353
rclavicle -1.30204e-014 2.38542e-015
rhumerus 47.4898 18.9486 13.0077
rradius 78.2822
rwrist -66.5414
rhand 2.89791 24.9392
rfingers 7.12502
rthumb 28.363 -2.93232
lclavicle -1.30204e-014 2.38542e-015
lhumerus 43.0722 -30.5066 0.653388
lradius 63.1286
lwrist 11.3654
lhand 39.3463 40.2811
lfingers 7.12502
lthumb 61.8511 51.9591
rfemur -10.3465 7.13078 16.9259
rtibia 29.9907
rfoot -11.1828 -25.1716
rtoes -3.97469
lfemur -9.34148 -10.8831 -11.762
ltibia 22.6916
lfoot -16.6974 4.85253
ltoes -25.4534
4168
root 12.5635 16.2314 -13.1082 -0.621429 -3.76487 0.472643
lowerback -0.0787287 0.197829 1.46619
upperback 5.86846 0.127011 1.5827
thorax 6.12768 0.089894 0.830805
lowerneck -9.92449 1.91057 -3.61578
upperneck -9.46204 3.02706 3.21487
head -1.42389 1.60523 1.67508
rclavicle 4.96962e-016 1.90833e-014
rhumerus 47.5867 19.3787 13.0865
rradius 78.1725
rwrist -66.8567
rhand 3.63482 25.0582
rfingers 7.12502
rthumb 29.067 -2.69398
lclavicle 4.96962e-016 1.90833e-014
lhumerus 42.4319 -28.9821 1.37684
lradius 62.9313
lwrist 11.2545
lhand 39.0672 39.6038
lfingers 7.12502
lthumb 61.6175 51.5659
rfemur -10.1884 7.21131 16.6222
rtibia 29.7927
rfoot -11.1885 -25.1529
rtoes -5.17675
lfemur -9.24609 -11.0372 -12.0637
ltibia 22.6754
lfoot -16.3223 5.21857
ltoes -26.8565
4169
root 12.5697 16.2306 -13.0948 -0.694314 -3.87035 0.532569
lowerback -0.185076 0.200745 1.59206
upperback 5.80351 0.122537 1.63071
thorax 6.12051 0.0926058 0.810098
lowerneck -9.65821 1.94615 -3.61336
upperneck -9.62179 3.0681 3.19537
head -1.52048 1.62353 1.66563
rclavicle -4.87022e-015 -2.94201e-014
rhumerus 47.7559 19.7491 13.2594
rradius 78.0733
rwrist -66.8613
rhand 3.7387 25.6251
rfingers 7.12502
rthumb 29.1662 -2.10991
lclavicle -4.87022e-015 -2.94201e-014
lhumerus 41.7107 -27.3089 2.11128
lradius 62.9294
lwrist 11.2288
lhand 38.6841 39.5257
lfingers 7.12502
lthumb 61.2957 51.8698
rfemur -9.94932 7.44882 16.5599
rtibia 29.59
rfoot -11.2586 -25.2014
rtoes -4.55932
lfemur -9.08524 -11.1808 -12.1864
ltibia 22.6759
lfoot -15.9452 5.50581
ltoes -27.7164
4170
root 12.5749 16.235 -13.0838 -0.679754 -3.95307 0.39211
lowerback -0.374786 0.213225 1.93428
upperback 5.76568 0.116262 1.73673
thorax 6.19149 0.104129 0.729492
lowerneck -9.74259 1.92159 -3.6753
upperneck -9.48874 3.04408 3.27125
head -1.46526 1.61332 1.70219
rclavicle 3.97569e-015 -1.43125e-014
rhumerus 47.7567 20.0583 13.543
rradius 78.1446
rwrist -66.6755
rhand 3.15826 25.8253
rfingers 7.12502
rthumb 28.6118 -2.00459
lclavicle 3.97569e-015 -1.43125e-014
lhumerus 41.1651 -25.5198 2.86883
lradius 62.89
lwrist 11.3332
lhand 38.685 39.5691
lfingers 7.12502
lthumb 61.2964 51.9123
rfemur -9.82877 7.75361 16.7294
rtibia 29.417
rfoot -11.2891 -25.3455
rtoes -3.81494
lfemur -9.01757 -11.1616 -12.0649
ltibia 22.6404
lfoot -16.2987 5.22692
ltoes -24.8878
4171
root 12.5796 16.2403 -13.0753 -0.597281 -3.99214 0.342942
lowerback -0.571454 0.241876 2.08147
upperback 5.69975 0.13675 1.87617
thorax 6.23572 0.117754 0.794159
lowerneck -9.8752 1.85612 -3.75696
upperneck -9.41229 2.96947 3.33995
head -1.41864 1.57903 1.73964
rclavicle 2.78299e-015 -2.14687e-014
rhumerus 47.5989 20.2961 13.8246
rradius 78.2873
rwrist -66.5434
rhand 2.80192 25.8873
rfingers 7.12502
rthumb 28.2713 -1.9994
lclavicle 2.78299e-015 -2.14687e-014
lhumerus 40.9854 -23.7088 3.66944
lradius 62.3953
lwrist 11.4197
lhand 38.6187 39.045
lfingers 7.12502
lthumb 61.2406 51.4534
rfemur -9.77401 8.05482 16.7836
rtibia 29.2114
rfoot -11.402 -25.575
rtoes -3.83878
lfemur -9.07173 -11.1461 -12.0275
ltibia 22.6837
lfoot -16.5811 5.14137
ltoes -23.501
4172
root 12.5856 16.2426 -13.0688 -0.542319 -4.04331 0.29854
lowerback -0.695603 0.334358 2.25636
upperback 5.68736 0.246373 1.93389
thorax 6.29576 0.179671 0.764053
lowerneck -10.0673 1.77609 -3.56774
upperneck -9.6295 2.85519 3.31542
head -1.449 1.51769 1.69816
rclavicle -1.51076e-014 -3.97569e-015
rhumerus 47.1802 20.428 13.8009
rradius 78.3735
rwrist -66.4718
rhand 2.95739 25.733
rfingers 7.12502
rthumb 28.4198 -2.12909
lclavicle -1.51076e-014 -3.97569e-015
lhumerus 41.1406 -21.7717 4.4068
lradius 61.82
lwrist 11.54
lhand 38.1106 38.9031
lfingers 7.12502
lthumb 60.8113 51.8025
rfemur -9.68563 8.33475 16.8272
rtibia 28.962
rfoot -11.4149 -25.7145
rtoes -3.3881
lfemur -9.12116 -11.1775 -11.9968
ltibia 22.7541
lfoot -16.6446 5.23762
ltoes -23.1501
4173
root 12.5923 16.2445 -13.0598 -0.495843 -4.07892 0.117085
lowerback -0.804802 0.455373 2.63745
upperback 5.69851 0.385564 1.97675
thorax 6.37553 0.267678 0.60584
lowerneck -10.4918 1.68768 -3.33208
upperneck -9.70115 2.72989 3.31981
head -1.39403 1.451 1.66028
rclavicle -1.59028e-015 2.38542e-015
rhumerus 46.7338 20.5459 13.6459
rradius 78.3892
rwrist -66.4679
rhand 3.09664 25.2534
rfingers 7.12502
rthumb 28.5529 -2.58638
lclavicle -1.59028e-015 2.38542e-015
lhumerus 41.338 -19.8162 5.16486
lradius 61.5735
lwrist 11.6644
lhand 37.6263 39.4796
lfingers 7.12502
lthumb 60.4 52.833
rfemur -9.53602 8.56444 17.0277
rtibia 28.6834
rfoot -11.1298 -25.8257
rtoes -2.84151
lfemur -9.13634 -11.1768 -11.8129
ltibia 22.7929
lfoot -16.7397 5.17983
ltoes -22.152
4174
root 12.5995 16.2483 -13.043 -0.475584 -4.11198 -0.0284513
lowerback -0.951856 0.521513 2.97273
upperback 5.65948 0.449394 2.06923
thorax 6.42361 0.314127 0.520336
lowerneck -10.8594 1.62344 -3.28557
upperneck -9.51133 2.64819 3.37645
head -1.27011 1.41154 1.67316
rclavicle 1.03368e-014 9.54166e-015
rhumerus 46.5368 20.7631 13.6001
rradius 78.3509
rwrist -66.6375
rhand 3.34866 25.2118
rfingers 7.12502
rthumb 28.7937 -2.58722
lclavicle 1.03368e-014 9.54166e-015
lhumerus 41.344 -18.0288 5.90857
lradius 61.636
lwrist 11.8958
lhand 37.4656 39.9931
lfingers 7.12502
lthumb 60.2631 53.4941
rfemur -9.31819 8.70402 17.1837
rtibia 28.4321
rfoot -10.8715 -26.0105
rtoes -3.34996
lfemur -9.03003 -11.1983 -11.7009
ltibia 22.7497
lfoot -16.408 5.49868
ltoes -24.9154
4175
root 12.6067 16.2518 -13.0265 -0.516321 -4.19878 -0.0941156
lowerback -1.03648 0.540901 3.19903
upperback 5.58878 0.457124 2.18867
thorax 6.39986 0.325459 0.518969
lowerneck -10.9009 1.57315 -3.38992
upperneck -9.56164 2.59752 3.46955
head -1.28083 1.38921 1.72141
rclavicle -8.94531e-015 4.77083e-015
rhumerus 46.5182 21.0282 13.6728
rradius 78.3456
rwrist -66.8633
rhand 3.64244 25.5333
rfingers 7.12502
rthumb 29.0743 -2.21769
lclavicle -8.94531e-015 4.77083e-015
lhumerus 41.209 -16.3022 6.74954
lradius 61.7069
lwrist 12.0795
lhand 37.2574 39.8675
lfingers 7.12502
lthumb 60.0854 53.5578
rfemur -9.08845 8.87363 17.2549
rtibia 28.2453
rfoot -10.8543 -26.1803
rtoes -4.32192
lfemur -8.7515 -11.2964 -11.6931
ltibia 22.5414
lfoot -16.0362 5.79017
ltoes -26.9025
